<svg width="32" height="32" viewBox="0 0 32 32" xmlns="http://www.w3.org/2000/svg">
  <!-- Background circle -->
  <circle cx="16" cy="16" r="16" fill="#2a3b2e"/>
  
  <!-- Inner dark circle -->
  <circle cx="16" cy="16" r="13" fill="#1a2420"/>
  
  <!-- Crosshair/scope design -->
  <g stroke="#8faf94" stroke-width="1.5" fill="none">
    <!-- Outer scope ring -->
    <circle cx="16" cy="16" r="10"/>
    
    <!-- Crosshair lines -->
    <line x1="16" y1="8" x2="16" y2="12"/>
    <line x1="16" y1="20" x2="16" y2="24"/>
    <line x1="8" y1="16" x2="12" y2="16"/>
    <line x1="20" y1="16" x2="24" y2="16"/>
    
    <!-- Center dot -->
    <circle cx="16" cy="16" r="1" fill="#8faf94"/>
    
    <!-- Corner markers -->
    <path d="M10 10 L12 10 L12 12" stroke-linecap="round"/>
    <path d="M22 10 L20 10 L20 12" stroke-linecap="round"/>
    <path d="M10 22 L12 22 L12 20" stroke-linecap="round"/>
    <path d="M22 22 L20 22 L20 20" stroke-linecap="round"/>
  </g>
  
  <!-- Blood splatter accent -->
  <g fill="#5c1f1f" opacity="0.6">
    <circle cx="12" cy="8" r="1"/>
    <circle cx="23" cy="11" r="0.8"/>
    <circle cx="9" cy="25" r="1.2"/>
  </g>
  
  <!-- Subtle texture overlay -->
  <circle cx="16" cy="16" r="13" fill="none" stroke="#3d4f42" stroke-width="0.5" opacity="0.3"/>
</svg>